<?xml version="1.0" encoding="UTF-8"?>
<svg width="1000" height="600" viewBox="0 0 1000 600" xmlns="http://www.w3.org/2000/svg">
  <!-- 中国大陆轮廓 -->
  <path d="M650,170 L670,160 L690,155 L710,160 L730,170 L750,180 L770,190 L790,200 L780,210 L770,220 L760,230 L750,240 L740,250 L730,260 L720,270 L710,280 L700,290 L690,300 L680,310 L670,320 L660,330 L650,340 L640,350 L630,360 L620,370 L610,380 L600,390 L590,400 L580,410 L570,420 L560,430 L550,440 L540,450 L530,460 L520,470 L510,480 L500,490 L490,480 L480,470 L470,460 L460,450 L450,440 L440,430 L430,420 L420,410 L410,400 L400,390 L390,380 L380,370 L370,360 L360,350 L350,340 L340,330 L330,320 L320,310 L310,300 L300,290 L290,280 L280,270 L270,260 L260,250 L250,240 L240,230 L230,220 L220,210 L210,200 L220,190 L230,180 L240,170 L250,160 L260,150 L270,140 L280,130 L290,120 L300,110 L310,100 L320,110 L330,120 L340,130 L350,140 L360,150 L370,160 L380,170 L390,180 L400,190 L410,200 L420,210 L430,220 L440,230 L450,240 L460,250 L470,260 L480,270 L490,280 L500,290 L510,300 L520,310 L530,320 L540,330 L550,340 L560,350 L570,360 L580,370 L590,380 L600,370 L610,360 L620,350 L630,340 L640,330 L650,320 L660,310 L670,300 L680,290 L690,280 L700,270 L710,260 L720,250 L730,240 L740,230 L750,220 L760,210 L770,200 L780,190 L790,180 L800,170 L810,160 L820,150 L830,140 L840,130 L850,120 L860,110 L870,100 L860,110 L850,120 L840,130 L830,140 L820,150 L810,160 L800,170 L790,180 L780,190 L770,200 L760,210 L750,220 L740,230 L730,240 L720,250 L710,260 L700,270 L690,280 L680,290 L670,300 L660,310 L650,320 L640,330 L630,340 L620,350 L610,360 L600,370 L590,380 L580,390 L570,400 L560,410 L550,420 L540,430 L530,440 L520,450 L510,460 L500,470 L490,480 L480,490 L470,500 L460,510 L450,520 L440,530 L430,540 L420,550 L410,560 L400,570 L390,580 L380,590 L370,580 L360,570 L350,560 L340,550 L330,540 L320,530 L310,520 L300,510 L290,500 L280,490 L270,480 L260,470 L250,460 L240,450 L230,440 L220,430 L210,420 L200,410 L190,400 L180,390 L170,380 L160,370 L150,360 L140,350 L130,340 L120,330 L110,320 L100,310 L110,300 L120,290 L130,280 L140,270 L150,260 L160,250 L170,240 L180,230 L190,220 L200,210 L210,200 L220,190 L230,180 L240,170 L250,160 L260,150 L270,140 L280,130 L290,120 L300,110 L310,100 L320,110 L330,120 L340,130 L350,140 L360,150 L370,160 L380,170 L390,180 L400,190 L410,200 L420,210 L430,220 L440,230 L450,240 L460,250 L470,260 L480,270 L490,280 L500,290 L510,300 L520,310 L530,320 L540,330 L550,340 L560,350 L570,360 L580,370 L590,380 L600,370 L610,360 L620,350 L630,340 L640,330 L650,320 L660,310 L670,300 L680,290 L690,280 L700,270 L710,260 L720,250 L730,240 L740,230 L750,220 L760,210 L770,200 L780,190 L790,180 L800,170 L810,160 L820,150 L830,140 L840,130 L850,120 L860,110 L870,100 L860,110 L850,120 L840,130 L830,140 L820,150 L810,160 L800,170 L790,180 L780,190 L770,200 L760,210 L750,220 L740,230 L730,240 L720,250 L710,260 L700,270 L690,280 L680,290 L670,300 L660,310 L650,320 L640,330 L630,340 L620,350 L610,360 L600,370 L590,380 L580,390 L570,400 L560,410 L550,420 L540,430 L530,440 L520,450 L510,460 L500,470 L490,480 L480,490 L470,500 L460,510 L450,520 L440,530 L430,540 L420,550 L410,560 L400,570 L390,580 L380,590 L370,580 L360,570 L350,560 L340,550 L330,540 L320,530 L310,520 L300,510 L290,500 L280,490 L270,480 L260,470 L250,460 L240,450 L230,440 L220,430 L210,420 L200,410 L190,400 L180,390 L170,380 L160,370 L150,360 L140,350 L130,340 L120,330 L110,320 L100,310 L110,300 L120,290 L130,280 L140,270 L150,260 L160,250 L170,240 L180,230 L190,220 L200,210 L210,200 L220,190 L230,180 L240,170 L250,160 L260,150 L270,140 L280,130 L290,120 L300,110 L310,100 L320,110 L330,120 L340,130 L350,140 L360,150 L370,160 L380,170 L390,180 L400,190 L410,200 L420,210 L430,220 L440,230 L450,240 L460,250 L470,260 L480,270 L490,280 L500,290 L510,300 L520,310 L530,320 L540,330 L550,340 L560,350 L570,360 L580,370 L590,380 L600,370 L610,360 L620,350 L630,340 L640,330 L650,320 L660,310 L670,300 L680,290 L690,280 L700,270 L710,260 L720,250 L730,240 L740,230 L750,220 L760,210 L770,200 L780,190 L790,180 L800,170" 
    fill="none" stroke="#4a6cf7" stroke-width="2"/>
  
  <!-- 台湾岛 -->
  <path d="M800,350 Q810,370 805,390 Q800,410 785,420 Q770,430 760,410 Q750,390 755,370 Q760,350 775,340 Q790,330 800,350 Z" 
    fill="none" stroke="#4a6cf7" stroke-width="2"/>
  
  <!-- 海南岛 -->
  <path d="M620,500 Q635,510 630,525 Q625,540 610,545 Q595,550 580,540 Q565,530 570,515 Q575,500 590,495 Q605,490 620,500 Z" 
    fill="none" stroke="#4a6cf7" stroke-width="2"/>
</svg>